<svg xmlns="http://www.w3.org/2000/svg" viewBox="0 0 340 108" width="340" height="108" role="img" aria-label="peryx">
  <defs>
    <linearGradient id="peryx" x1="0" y1="0" x2="1" y2="1">
      <stop offset="0" stop-color="#f74c00"/>
      <stop offset="1" stop-color="#ffb600"/>
    </linearGradient>
  </defs>
  <path fill="url(#peryx)" transform="translate(4,6)" d="M45.2 8.2C40.5 9.5 40.4 10.5 41.3 31.7C41.8 42.9 41.7 43.3 37.4 43.3C34.3 43.3 31.7 44.0 29.7 45.3C27.6 46.6 24.0 46.9 22.7 45.8C20.8 44.4 16.9 36.2 15.3 30.6C14.7 28.7 13.7 25.5 13.0 23.7C12.2 21.8 11.4 19.6 11.1 18.8C9.8 15.2 8.3 14.8 6.8 17.8C6.0 19.3 6.2 20.8 7.7 26.8C8.4 29.9 9.8 36.1 10.7 40.7C12.2 47.7 14.6 57.0 15.6 59.7C15.8 60.2 16.4 62.4 17.0 64.7C19.0 72.4 23.1 79.6 25.5 79.6C26.6 79.6 29.2 78.1 29.2 77.5C29.2 77.1 32.0 75.3 32.9 75.1C35.3 74.6 40.5 79.8 42.6 84.8C43.5 87.1 46.0 91.1 47.2 92.2C47.7 92.7 48.3 92.8 50.0 92.8C51.7 92.8 52.3 92.7 52.8 92.2C54.0 91.1 56.5 87.1 57.4 84.8C59.5 79.8 64.7 74.6 67.1 75.1C68.0 75.3 70.8 77.1 70.8 77.5C70.8 78.1 73.4 79.6 74.5 79.6C76.9 79.6 81.0 72.4 83.0 64.7C83.6 62.4 84.2 60.2 84.4 59.7C85.4 57.0 87.8 47.7 89.3 40.7C90.2 36.1 91.6 29.9 92.3 26.8C93.8 20.8 94.0 19.3 93.2 17.8C91.7 14.8 90.2 15.2 88.9 18.8C88.6 19.6 87.8 21.8 87.0 23.7C86.3 25.5 85.3 28.7 84.7 30.6C83.1 36.2 79.2 44.4 77.3 45.8C76.0 46.9 72.4 46.6 70.3 45.3C68.3 44.0 65.7 43.3 62.6 43.3C58.3 43.3 58.2 42.9 58.7 31.7C59.5 14.2 59.3 11.0 57.4 9.3C55.9 7.8 48.8 7.2 45.2 8.2Z"/>
  <!-- Wordmark uses the system font by design (no web font). Convert to outlines for print/embedding. -->
  <text x="118" y="76" font-family="system-ui,-apple-system,'Segoe UI',Roboto,'Helvetica Neue',Arial,sans-serif" font-weight="800" font-size="64" letter-spacing="-3" fill="url(#peryx)">peryx</text>
</svg>
